<mxfile host="app.diagrams.net" agent="Mozilla/5.0 (Windows NT 10.0; Win64; x64) AppleWebKit/537.36 (KHTML, like Gecko) Chrome/129.0.0.0 Safari/537.36 Edg/129.0.0.0" version="24.7.17" pages="4">
  <diagram name="2" id="diVEnatXs8HwQHsmcUxf">
    <mxGraphModel dx="691" dy="533" grid="1" gridSize="10" guides="1" tooltips="1" connect="1" arrows="1" fold="1" page="1" pageScale="1" pageWidth="850" pageHeight="1100" math="0" shadow="0">
      <root>
        <mxCell id="0" />
        <mxCell id="1" parent="0" />
        <mxCell id="lX6s6-eAxz4vSSYmXmSn-3" value="" style="edgeStyle=orthogonalEdgeStyle;rounded=0;orthogonalLoop=1;jettySize=auto;html=1;" edge="1" parent="1" source="lX6s6-eAxz4vSSYmXmSn-1" target="lX6s6-eAxz4vSSYmXmSn-2">
          <mxGeometry relative="1" as="geometry" />
        </mxCell>
        <mxCell id="lX6s6-eAxz4vSSYmXmSn-1" value="&lt;font style=&quot;font-size: 14px;&quot;&gt;Grade(int score)&lt;/font&gt;" style="rounded=1;whiteSpace=wrap;html=1;" vertex="1" parent="1">
          <mxGeometry x="60" y="40" width="120" height="60" as="geometry" />
        </mxCell>
        <mxCell id="lX6s6-eAxz4vSSYmXmSn-5" value="" style="edgeStyle=orthogonalEdgeStyle;rounded=0;orthogonalLoop=1;jettySize=auto;html=1;" edge="1" parent="1" source="lX6s6-eAxz4vSSYmXmSn-2" target="lX6s6-eAxz4vSSYmXmSn-4">
          <mxGeometry relative="1" as="geometry" />
        </mxCell>
        <mxCell id="lX6s6-eAxz4vSSYmXmSn-2" value="&lt;font style=&quot;font-size: 14px;&quot;&gt;char res&lt;/font&gt;" style="rounded=1;whiteSpace=wrap;html=1;" vertex="1" parent="1">
          <mxGeometry x="60" y="130" width="120" height="60" as="geometry" />
        </mxCell>
        <mxCell id="lX6s6-eAxz4vSSYmXmSn-7" value="" style="edgeStyle=orthogonalEdgeStyle;rounded=0;orthogonalLoop=1;jettySize=auto;html=1;" edge="1" parent="1" source="lX6s6-eAxz4vSSYmXmSn-4" target="lX6s6-eAxz4vSSYmXmSn-6">
          <mxGeometry relative="1" as="geometry" />
        </mxCell>
        <mxCell id="lX6s6-eAxz4vSSYmXmSn-10" value="" style="edgeStyle=orthogonalEdgeStyle;rounded=0;orthogonalLoop=1;jettySize=auto;html=1;" edge="1" parent="1" source="lX6s6-eAxz4vSSYmXmSn-4" target="lX6s6-eAxz4vSSYmXmSn-9">
          <mxGeometry relative="1" as="geometry" />
        </mxCell>
        <mxCell id="lX6s6-eAxz4vSSYmXmSn-4" value="&lt;font size=&quot;3&quot;&gt;score &amp;lt; 0 ||&lt;/font&gt;&lt;div&gt;&lt;font size=&quot;3&quot;&gt;&amp;nbsp;score &amp;gt; 10&lt;/font&gt;&lt;/div&gt;" style="rhombus;whiteSpace=wrap;html=1;rounded=1;arcSize=0;" vertex="1" parent="1">
          <mxGeometry x="45" y="220" width="150" height="80" as="geometry" />
        </mxCell>
        <mxCell id="lX6s6-eAxz4vSSYmXmSn-51" style="edgeStyle=orthogonalEdgeStyle;rounded=0;orthogonalLoop=1;jettySize=auto;html=1;exitX=1;exitY=0.5;exitDx=0;exitDy=0;entryX=1;entryY=0.5;entryDx=0;entryDy=0;" edge="1" parent="1" source="lX6s6-eAxz4vSSYmXmSn-6" target="lX6s6-eAxz4vSSYmXmSn-49">
          <mxGeometry relative="1" as="geometry">
            <Array as="points">
              <mxPoint x="600" y="260" />
              <mxPoint x="600" y="1030" />
            </Array>
          </mxGeometry>
        </mxCell>
        <mxCell id="lX6s6-eAxz4vSSYmXmSn-6" value="&lt;font style=&quot;font-size: 14px;&quot;&gt;return &#39;I&#39;&lt;/font&gt;" style="whiteSpace=wrap;html=1;rounded=1;arcSize=35;" vertex="1" parent="1">
          <mxGeometry x="290" y="230" width="120" height="60" as="geometry" />
        </mxCell>
        <mxCell id="lX6s6-eAxz4vSSYmXmSn-8" value="&lt;font style=&quot;font-size: 14px;&quot;&gt;true&lt;/font&gt;" style="text;html=1;align=center;verticalAlign=middle;whiteSpace=wrap;rounded=0;" vertex="1" parent="1">
          <mxGeometry x="200" y="230" width="60" height="30" as="geometry" />
        </mxCell>
        <mxCell id="lX6s6-eAxz4vSSYmXmSn-15" style="edgeStyle=orthogonalEdgeStyle;rounded=0;orthogonalLoop=1;jettySize=auto;html=1;exitX=1;exitY=0.5;exitDx=0;exitDy=0;entryX=0;entryY=0.5;entryDx=0;entryDy=0;" edge="1" parent="1" source="lX6s6-eAxz4vSSYmXmSn-9" target="lX6s6-eAxz4vSSYmXmSn-12">
          <mxGeometry relative="1" as="geometry" />
        </mxCell>
        <mxCell id="lX6s6-eAxz4vSSYmXmSn-9" value="&lt;font size=&quot;3&quot;&gt;score &amp;gt;= 9&lt;/font&gt;" style="rhombus;whiteSpace=wrap;html=1;rounded=1;arcSize=0;" vertex="1" parent="1">
          <mxGeometry x="45" y="340" width="150" height="80" as="geometry" />
        </mxCell>
        <mxCell id="lX6s6-eAxz4vSSYmXmSn-11" value="&lt;font style=&quot;font-size: 14px;&quot;&gt;false&lt;/font&gt;" style="text;html=1;align=center;verticalAlign=middle;whiteSpace=wrap;rounded=0;" vertex="1" parent="1">
          <mxGeometry x="60" y="300" width="60" height="30" as="geometry" />
        </mxCell>
        <mxCell id="er7ln4C7mrT5dpVqqlox-2" style="edgeStyle=orthogonalEdgeStyle;rounded=0;orthogonalLoop=1;jettySize=auto;html=1;exitX=1;exitY=0.5;exitDx=0;exitDy=0;entryX=0.75;entryY=1;entryDx=0;entryDy=0;" edge="1" parent="1" source="lX6s6-eAxz4vSSYmXmSn-12" target="lX6s6-eAxz4vSSYmXmSn-42">
          <mxGeometry relative="1" as="geometry">
            <Array as="points">
              <mxPoint x="560" y="380" />
              <mxPoint x="560" y="970" />
              <mxPoint x="150" y="970" />
            </Array>
          </mxGeometry>
        </mxCell>
        <mxCell id="lX6s6-eAxz4vSSYmXmSn-12" value="&lt;font style=&quot;font-size: 14px;&quot;&gt;res = &#39;A&#39;&lt;/font&gt;" style="whiteSpace=wrap;html=1;rounded=1;arcSize=35;" vertex="1" parent="1">
          <mxGeometry x="290" y="350" width="120" height="60" as="geometry" />
        </mxCell>
        <mxCell id="lX6s6-eAxz4vSSYmXmSn-13" value="&lt;font style=&quot;font-size: 14px;&quot;&gt;true&lt;/font&gt;" style="text;html=1;align=center;verticalAlign=middle;whiteSpace=wrap;rounded=0;" vertex="1" parent="1">
          <mxGeometry x="210" y="350" width="60" height="30" as="geometry" />
        </mxCell>
        <mxCell id="lX6s6-eAxz4vSSYmXmSn-16" value="" style="edgeStyle=orthogonalEdgeStyle;rounded=0;orthogonalLoop=1;jettySize=auto;html=1;exitX=0.5;exitY=1;exitDx=0;exitDy=0;" edge="1" target="lX6s6-eAxz4vSSYmXmSn-18" parent="1" source="lX6s6-eAxz4vSSYmXmSn-9">
          <mxGeometry relative="1" as="geometry">
            <mxPoint x="120" y="560" as="sourcePoint" />
          </mxGeometry>
        </mxCell>
        <mxCell id="lX6s6-eAxz4vSSYmXmSn-17" style="edgeStyle=orthogonalEdgeStyle;rounded=0;orthogonalLoop=1;jettySize=auto;html=1;exitX=1;exitY=0.5;exitDx=0;exitDy=0;entryX=0;entryY=0.5;entryDx=0;entryDy=0;" edge="1" source="lX6s6-eAxz4vSSYmXmSn-18" target="lX6s6-eAxz4vSSYmXmSn-20" parent="1">
          <mxGeometry relative="1" as="geometry" />
        </mxCell>
        <mxCell id="lX6s6-eAxz4vSSYmXmSn-18" value="&lt;font size=&quot;3&quot;&gt;score &amp;gt;= 8&lt;/font&gt;" style="rhombus;whiteSpace=wrap;html=1;rounded=1;arcSize=0;" vertex="1" parent="1">
          <mxGeometry x="45" y="450" width="150" height="80" as="geometry" />
        </mxCell>
        <mxCell id="lX6s6-eAxz4vSSYmXmSn-19" value="&lt;font style=&quot;font-size: 14px;&quot;&gt;false&lt;/font&gt;" style="text;html=1;align=center;verticalAlign=middle;whiteSpace=wrap;rounded=0;" vertex="1" parent="1">
          <mxGeometry x="60" y="410" width="60" height="30" as="geometry" />
        </mxCell>
        <mxCell id="lX6s6-eAxz4vSSYmXmSn-20" value="&lt;font style=&quot;font-size: 14px;&quot;&gt;res = &#39;B&#39;&lt;/font&gt;" style="whiteSpace=wrap;html=1;rounded=1;arcSize=35;" vertex="1" parent="1">
          <mxGeometry x="290" y="460" width="120" height="60" as="geometry" />
        </mxCell>
        <mxCell id="lX6s6-eAxz4vSSYmXmSn-21" value="&lt;font style=&quot;font-size: 14px;&quot;&gt;true&lt;/font&gt;" style="text;html=1;align=center;verticalAlign=middle;whiteSpace=wrap;rounded=0;" vertex="1" parent="1">
          <mxGeometry x="210" y="460" width="60" height="30" as="geometry" />
        </mxCell>
        <mxCell id="lX6s6-eAxz4vSSYmXmSn-22" value="" style="edgeStyle=orthogonalEdgeStyle;rounded=0;orthogonalLoop=1;jettySize=auto;html=1;exitX=0.5;exitY=1;exitDx=0;exitDy=0;" edge="1" parent="1" target="lX6s6-eAxz4vSSYmXmSn-24" source="lX6s6-eAxz4vSSYmXmSn-18">
          <mxGeometry relative="1" as="geometry">
            <mxPoint x="120" y="730" as="sourcePoint" />
          </mxGeometry>
        </mxCell>
        <mxCell id="lX6s6-eAxz4vSSYmXmSn-23" style="edgeStyle=orthogonalEdgeStyle;rounded=0;orthogonalLoop=1;jettySize=auto;html=1;exitX=1;exitY=0.5;exitDx=0;exitDy=0;entryX=0;entryY=0.5;entryDx=0;entryDy=0;" edge="1" parent="1" source="lX6s6-eAxz4vSSYmXmSn-24" target="lX6s6-eAxz4vSSYmXmSn-26">
          <mxGeometry relative="1" as="geometry" />
        </mxCell>
        <mxCell id="lX6s6-eAxz4vSSYmXmSn-24" value="&lt;font size=&quot;3&quot;&gt;score &amp;gt;= 6.5&lt;/font&gt;" style="rhombus;whiteSpace=wrap;html=1;rounded=1;arcSize=0;" vertex="1" parent="1">
          <mxGeometry x="45" y="560" width="150" height="80" as="geometry" />
        </mxCell>
        <mxCell id="lX6s6-eAxz4vSSYmXmSn-25" value="&lt;font style=&quot;font-size: 14px;&quot;&gt;false&lt;/font&gt;" style="text;html=1;align=center;verticalAlign=middle;whiteSpace=wrap;rounded=0;" vertex="1" parent="1">
          <mxGeometry x="60" y="535" width="60" height="30" as="geometry" />
        </mxCell>
        <mxCell id="lX6s6-eAxz4vSSYmXmSn-45" style="edgeStyle=orthogonalEdgeStyle;rounded=0;orthogonalLoop=1;jettySize=auto;html=1;exitX=1;exitY=0.5;exitDx=0;exitDy=0;entryX=1;entryY=0.5;entryDx=0;entryDy=0;" edge="1" parent="1" source="lX6s6-eAxz4vSSYmXmSn-26" target="lX6s6-eAxz4vSSYmXmSn-42">
          <mxGeometry relative="1" as="geometry">
            <Array as="points">
              <mxPoint x="430" y="600" />
              <mxPoint x="430" y="920" />
            </Array>
          </mxGeometry>
        </mxCell>
        <mxCell id="lX6s6-eAxz4vSSYmXmSn-26" value="&lt;font style=&quot;font-size: 14px;&quot;&gt;res = &#39;C&#39;&lt;/font&gt;" style="whiteSpace=wrap;html=1;rounded=1;arcSize=35;" vertex="1" parent="1">
          <mxGeometry x="290" y="570" width="120" height="60" as="geometry" />
        </mxCell>
        <mxCell id="lX6s6-eAxz4vSSYmXmSn-27" value="&lt;font style=&quot;font-size: 14px;&quot;&gt;true&lt;/font&gt;" style="text;html=1;align=center;verticalAlign=middle;whiteSpace=wrap;rounded=0;" vertex="1" parent="1">
          <mxGeometry x="210" y="570" width="60" height="30" as="geometry" />
        </mxCell>
        <mxCell id="lX6s6-eAxz4vSSYmXmSn-28" value="" style="edgeStyle=orthogonalEdgeStyle;rounded=0;orthogonalLoop=1;jettySize=auto;html=1;exitX=0.5;exitY=1;exitDx=0;exitDy=0;" edge="1" parent="1" target="lX6s6-eAxz4vSSYmXmSn-30" source="lX6s6-eAxz4vSSYmXmSn-24">
          <mxGeometry relative="1" as="geometry">
            <mxPoint x="120" y="910" as="sourcePoint" />
          </mxGeometry>
        </mxCell>
        <mxCell id="lX6s6-eAxz4vSSYmXmSn-29" style="edgeStyle=orthogonalEdgeStyle;rounded=0;orthogonalLoop=1;jettySize=auto;html=1;exitX=1;exitY=0.5;exitDx=0;exitDy=0;entryX=0;entryY=0.5;entryDx=0;entryDy=0;" edge="1" parent="1" source="lX6s6-eAxz4vSSYmXmSn-30" target="lX6s6-eAxz4vSSYmXmSn-32">
          <mxGeometry relative="1" as="geometry" />
        </mxCell>
        <mxCell id="lX6s6-eAxz4vSSYmXmSn-41" value="" style="edgeStyle=orthogonalEdgeStyle;rounded=0;orthogonalLoop=1;jettySize=auto;html=1;" edge="1" parent="1" source="lX6s6-eAxz4vSSYmXmSn-30" target="lX6s6-eAxz4vSSYmXmSn-40">
          <mxGeometry relative="1" as="geometry" />
        </mxCell>
        <mxCell id="lX6s6-eAxz4vSSYmXmSn-30" value="&lt;font size=&quot;3&quot;&gt;score &amp;gt;= 5&lt;/font&gt;" style="rhombus;whiteSpace=wrap;html=1;rounded=1;arcSize=0;" vertex="1" parent="1">
          <mxGeometry x="45" y="670" width="150" height="80" as="geometry" />
        </mxCell>
        <mxCell id="lX6s6-eAxz4vSSYmXmSn-31" value="&lt;font style=&quot;font-size: 14px;&quot;&gt;false&lt;/font&gt;" style="text;html=1;align=center;verticalAlign=middle;whiteSpace=wrap;rounded=0;" vertex="1" parent="1">
          <mxGeometry x="60" y="640" width="60" height="30" as="geometry" />
        </mxCell>
        <mxCell id="lX6s6-eAxz4vSSYmXmSn-44" style="edgeStyle=orthogonalEdgeStyle;rounded=0;orthogonalLoop=1;jettySize=auto;html=1;exitX=0.5;exitY=1;exitDx=0;exitDy=0;entryX=0.894;entryY=0.08;entryDx=0;entryDy=0;entryPerimeter=0;" edge="1" parent="1" source="lX6s6-eAxz4vSSYmXmSn-32" target="lX6s6-eAxz4vSSYmXmSn-42">
          <mxGeometry relative="1" as="geometry">
            <Array as="points">
              <mxPoint x="350" y="890" />
              <mxPoint x="174" y="890" />
              <mxPoint x="174" y="895" />
            </Array>
          </mxGeometry>
        </mxCell>
        <mxCell id="lX6s6-eAxz4vSSYmXmSn-32" value="&lt;font style=&quot;font-size: 14px;&quot;&gt;res = &#39;D&#39;&lt;/font&gt;" style="whiteSpace=wrap;html=1;rounded=1;arcSize=35;" vertex="1" parent="1">
          <mxGeometry x="290" y="680" width="120" height="60" as="geometry" />
        </mxCell>
        <mxCell id="lX6s6-eAxz4vSSYmXmSn-33" value="&lt;font style=&quot;font-size: 14px;&quot;&gt;true&lt;/font&gt;" style="text;html=1;align=center;verticalAlign=middle;whiteSpace=wrap;rounded=0;" vertex="1" parent="1">
          <mxGeometry x="210" y="680" width="60" height="30" as="geometry" />
        </mxCell>
        <mxCell id="lX6s6-eAxz4vSSYmXmSn-43" value="" style="edgeStyle=orthogonalEdgeStyle;rounded=0;orthogonalLoop=1;jettySize=auto;html=1;" edge="1" parent="1" source="lX6s6-eAxz4vSSYmXmSn-40" target="lX6s6-eAxz4vSSYmXmSn-42">
          <mxGeometry relative="1" as="geometry" />
        </mxCell>
        <mxCell id="lX6s6-eAxz4vSSYmXmSn-40" value="&lt;font style=&quot;font-size: 14px;&quot;&gt;res = &#39;F&#39;&lt;/font&gt;" style="whiteSpace=wrap;html=1;rounded=1;arcSize=35;" vertex="1" parent="1">
          <mxGeometry x="60" y="790" width="120" height="60" as="geometry" />
        </mxCell>
        <mxCell id="lX6s6-eAxz4vSSYmXmSn-50" value="" style="edgeStyle=orthogonalEdgeStyle;rounded=0;orthogonalLoop=1;jettySize=auto;html=1;" edge="1" parent="1" source="lX6s6-eAxz4vSSYmXmSn-42" target="lX6s6-eAxz4vSSYmXmSn-49">
          <mxGeometry relative="1" as="geometry" />
        </mxCell>
        <mxCell id="lX6s6-eAxz4vSSYmXmSn-42" value="&lt;font style=&quot;font-size: 14px;&quot;&gt;return res&lt;/font&gt;" style="whiteSpace=wrap;html=1;rounded=1;arcSize=35;" vertex="1" parent="1">
          <mxGeometry x="60" y="890" width="120" height="60" as="geometry" />
        </mxCell>
        <mxCell id="lX6s6-eAxz4vSSYmXmSn-49" value="&lt;span style=&quot;font-size: 14px;&quot;&gt;exit&lt;/span&gt;" style="whiteSpace=wrap;html=1;rounded=1;arcSize=35;" vertex="1" parent="1">
          <mxGeometry x="60" y="1000" width="120" height="60" as="geometry" />
        </mxCell>
        <mxCell id="lX6s6-eAxz4vSSYmXmSn-52" value="&lt;font style=&quot;font-size: 14px;&quot;&gt;false&lt;/font&gt;" style="text;html=1;align=center;verticalAlign=middle;whiteSpace=wrap;rounded=0;" vertex="1" parent="1">
          <mxGeometry x="60" y="750" width="60" height="30" as="geometry" />
        </mxCell>
        <mxCell id="er7ln4C7mrT5dpVqqlox-3" style="edgeStyle=orthogonalEdgeStyle;rounded=0;orthogonalLoop=1;jettySize=auto;html=1;exitX=1;exitY=0.5;exitDx=0;exitDy=0;entryX=0.937;entryY=0.936;entryDx=0;entryDy=0;entryPerimeter=0;" edge="1" parent="1" source="lX6s6-eAxz4vSSYmXmSn-20" target="lX6s6-eAxz4vSSYmXmSn-42">
          <mxGeometry relative="1" as="geometry">
            <Array as="points">
              <mxPoint x="500" y="490" />
              <mxPoint x="500" y="946" />
            </Array>
          </mxGeometry>
        </mxCell>
        <mxCell id="Wg5EGyavSUFiNrTydnXo-1" value="(0)" style="text;html=1;align=center;verticalAlign=middle;whiteSpace=wrap;rounded=0;" vertex="1" parent="1">
          <mxGeometry x="20" y="52.5" width="40" height="35" as="geometry" />
        </mxCell>
        <mxCell id="Wg5EGyavSUFiNrTydnXo-2" value="(1)" style="text;html=1;align=center;verticalAlign=middle;whiteSpace=wrap;rounded=0;" vertex="1" parent="1">
          <mxGeometry x="20" y="142.5" width="40" height="35" as="geometry" />
        </mxCell>
        <mxCell id="Wg5EGyavSUFiNrTydnXo-3" value="(2)" style="text;html=1;align=center;verticalAlign=middle;whiteSpace=wrap;rounded=0;" vertex="1" parent="1">
          <mxGeometry x="5" y="242.5" width="40" height="35" as="geometry" />
        </mxCell>
        <mxCell id="Wg5EGyavSUFiNrTydnXo-9" value="(4)" style="text;html=1;align=center;verticalAlign=middle;whiteSpace=wrap;rounded=0;" vertex="1" parent="1">
          <mxGeometry x="5" y="362.5" width="40" height="35" as="geometry" />
        </mxCell>
        <mxCell id="Wg5EGyavSUFiNrTydnXo-12" value="(6)" style="text;html=1;align=center;verticalAlign=middle;whiteSpace=wrap;rounded=0;" vertex="1" parent="1">
          <mxGeometry x="5" y="472.5" width="40" height="35" as="geometry" />
        </mxCell>
        <mxCell id="Wg5EGyavSUFiNrTydnXo-13" value="(12)" style="text;html=1;align=center;verticalAlign=middle;whiteSpace=wrap;rounded=0;" vertex="1" parent="1">
          <mxGeometry x="20" y="800" width="40" height="35" as="geometry" />
        </mxCell>
        <mxCell id="Wg5EGyavSUFiNrTydnXo-14" value="(11)" style="text;html=1;align=center;verticalAlign=middle;whiteSpace=wrap;rounded=0;" vertex="1" parent="1">
          <mxGeometry x="330" y="645" width="40" height="35" as="geometry" />
        </mxCell>
        <mxCell id="Wg5EGyavSUFiNrTydnXo-15" value="(9)" style="text;html=1;align=center;verticalAlign=middle;whiteSpace=wrap;rounded=0;" vertex="1" parent="1">
          <mxGeometry x="330" y="533" width="40" height="35" as="geometry" />
        </mxCell>
        <mxCell id="Wg5EGyavSUFiNrTydnXo-16" value="(10)" style="text;html=1;align=center;verticalAlign=middle;whiteSpace=wrap;rounded=0;" vertex="1" parent="1">
          <mxGeometry x="5" y="692.5" width="40" height="35" as="geometry" />
        </mxCell>
        <mxCell id="Wg5EGyavSUFiNrTydnXo-17" value="(7)" style="text;html=1;align=center;verticalAlign=middle;whiteSpace=wrap;rounded=0;" vertex="1" parent="1">
          <mxGeometry x="330" y="425" width="40" height="35" as="geometry" />
        </mxCell>
        <mxCell id="Wg5EGyavSUFiNrTydnXo-18" value="(8)" style="text;html=1;align=center;verticalAlign=middle;whiteSpace=wrap;rounded=0;" vertex="1" parent="1">
          <mxGeometry x="10" y="582.5" width="40" height="35" as="geometry" />
        </mxCell>
        <mxCell id="Wg5EGyavSUFiNrTydnXo-19" value="(14)" style="text;html=1;align=center;verticalAlign=middle;whiteSpace=wrap;rounded=0;" vertex="1" parent="1">
          <mxGeometry x="20" y="1020" width="40" height="35" as="geometry" />
        </mxCell>
        <mxCell id="Wg5EGyavSUFiNrTydnXo-21" value="(13)" style="text;html=1;align=center;verticalAlign=middle;whiteSpace=wrap;rounded=0;" vertex="1" parent="1">
          <mxGeometry x="20" y="902.5" width="40" height="35" as="geometry" />
        </mxCell>
        <mxCell id="Wg5EGyavSUFiNrTydnXo-22" value="(3)" style="text;html=1;align=center;verticalAlign=middle;whiteSpace=wrap;rounded=0;" vertex="1" parent="1">
          <mxGeometry x="330" y="195" width="40" height="35" as="geometry" />
        </mxCell>
        <mxCell id="Wg5EGyavSUFiNrTydnXo-23" value="(5)" style="text;html=1;align=center;verticalAlign=middle;whiteSpace=wrap;rounded=0;" vertex="1" parent="1">
          <mxGeometry x="330" y="315" width="40" height="35" as="geometry" />
        </mxCell>
      </root>
    </mxGraphModel>
  </diagram>
  <diagram id="6nMlFbjJkpMp6mRqNSAp" name="3">
    <mxGraphModel dx="975" dy="752" grid="1" gridSize="10" guides="1" tooltips="1" connect="1" arrows="1" fold="1" page="1" pageScale="1" pageWidth="850" pageHeight="1100" math="0" shadow="0">
      <root>
        <mxCell id="0" />
        <mxCell id="1" parent="0" />
        <mxCell id="C1Iqox2kpJ_FTRaIJ511-1" value="" style="edgeStyle=orthogonalEdgeStyle;rounded=0;orthogonalLoop=1;jettySize=auto;html=1;" edge="1" parent="1" source="C1Iqox2kpJ_FTRaIJ511-2" target="C1Iqox2kpJ_FTRaIJ511-4">
          <mxGeometry relative="1" as="geometry" />
        </mxCell>
        <mxCell id="C1Iqox2kpJ_FTRaIJ511-2" value="&lt;font style=&quot;font-size: 14px;&quot;&gt;Sum(int a[], int n)&lt;/font&gt;" style="rounded=1;whiteSpace=wrap;html=1;" vertex="1" parent="1">
          <mxGeometry x="60" y="40" width="120" height="60" as="geometry" />
        </mxCell>
        <mxCell id="C1Iqox2kpJ_FTRaIJ511-46" value="" style="edgeStyle=orthogonalEdgeStyle;rounded=0;orthogonalLoop=1;jettySize=auto;html=1;" edge="1" parent="1" source="C1Iqox2kpJ_FTRaIJ511-4" target="C1Iqox2kpJ_FTRaIJ511-45">
          <mxGeometry relative="1" as="geometry" />
        </mxCell>
        <mxCell id="C1Iqox2kpJ_FTRaIJ511-4" value="&lt;font style=&quot;font-size: 14px;&quot;&gt;int i,&lt;/font&gt;&lt;div&gt;&lt;font style=&quot;font-size: 14px;&quot;&gt;total = 0&lt;/font&gt;&lt;/div&gt;" style="rounded=1;whiteSpace=wrap;html=1;" vertex="1" parent="1">
          <mxGeometry x="60" y="130" width="120" height="60" as="geometry" />
        </mxCell>
        <mxCell id="C1Iqox2kpJ_FTRaIJ511-43" value="&lt;span style=&quot;font-size: 14px;&quot;&gt;exit&lt;/span&gt;" style="whiteSpace=wrap;html=1;rounded=1;arcSize=22;" vertex="1" parent="1">
          <mxGeometry x="260" y="420" width="100" height="50" as="geometry" />
        </mxCell>
        <mxCell id="C1Iqox2kpJ_FTRaIJ511-48" value="" style="edgeStyle=orthogonalEdgeStyle;rounded=0;orthogonalLoop=1;jettySize=auto;html=1;" edge="1" parent="1" source="C1Iqox2kpJ_FTRaIJ511-45" target="C1Iqox2kpJ_FTRaIJ511-47">
          <mxGeometry relative="1" as="geometry" />
        </mxCell>
        <mxCell id="C1Iqox2kpJ_FTRaIJ511-45" value="&lt;span style=&quot;font-size: 14px;&quot;&gt;i = 0&lt;/span&gt;" style="rounded=1;whiteSpace=wrap;html=1;" vertex="1" parent="1">
          <mxGeometry x="60" y="220" width="120" height="60" as="geometry" />
        </mxCell>
        <mxCell id="C1Iqox2kpJ_FTRaIJ511-50" value="" style="edgeStyle=orthogonalEdgeStyle;rounded=0;orthogonalLoop=1;jettySize=auto;html=1;" edge="1" parent="1" source="C1Iqox2kpJ_FTRaIJ511-47" target="C1Iqox2kpJ_FTRaIJ511-49">
          <mxGeometry relative="1" as="geometry" />
        </mxCell>
        <mxCell id="C1Iqox2kpJ_FTRaIJ511-56" style="edgeStyle=orthogonalEdgeStyle;rounded=0;orthogonalLoop=1;jettySize=auto;html=1;exitX=0.5;exitY=1;exitDx=0;exitDy=0;entryX=0.5;entryY=0;entryDx=0;entryDy=0;" edge="1" parent="1" source="C1Iqox2kpJ_FTRaIJ511-47" target="C1Iqox2kpJ_FTRaIJ511-55">
          <mxGeometry relative="1" as="geometry" />
        </mxCell>
        <mxCell id="C1Iqox2kpJ_FTRaIJ511-47" value="&lt;font style=&quot;font-size: 14px;&quot;&gt;i &amp;lt; n&lt;/font&gt;" style="rhombus;whiteSpace=wrap;html=1;rounded=1;arcSize=0;" vertex="1" parent="1">
          <mxGeometry x="60" y="310" width="120" height="60" as="geometry" />
        </mxCell>
        <mxCell id="C1Iqox2kpJ_FTRaIJ511-61" value="" style="edgeStyle=orthogonalEdgeStyle;rounded=0;orthogonalLoop=1;jettySize=auto;html=1;" edge="1" parent="1" source="C1Iqox2kpJ_FTRaIJ511-49" target="C1Iqox2kpJ_FTRaIJ511-43">
          <mxGeometry relative="1" as="geometry" />
        </mxCell>
        <mxCell id="C1Iqox2kpJ_FTRaIJ511-49" value="&lt;font style=&quot;font-size: 14px;&quot;&gt;return total&lt;/font&gt;" style="whiteSpace=wrap;html=1;rounded=1;arcSize=18;" vertex="1" parent="1">
          <mxGeometry x="250" y="310" width="120" height="60" as="geometry" />
        </mxCell>
        <mxCell id="C1Iqox2kpJ_FTRaIJ511-51" value="&lt;font style=&quot;font-size: 14px;&quot;&gt;false&lt;/font&gt;" style="text;html=1;align=center;verticalAlign=middle;whiteSpace=wrap;rounded=0;" vertex="1" parent="1">
          <mxGeometry x="180" y="310" width="60" height="30" as="geometry" />
        </mxCell>
        <mxCell id="C1Iqox2kpJ_FTRaIJ511-52" value="&lt;font style=&quot;font-size: 14px;&quot;&gt;true&lt;/font&gt;" style="text;html=1;align=center;verticalAlign=middle;whiteSpace=wrap;rounded=0;" vertex="1" parent="1">
          <mxGeometry x="70" y="380" width="60" height="30" as="geometry" />
        </mxCell>
        <mxCell id="C1Iqox2kpJ_FTRaIJ511-58" value="" style="edgeStyle=orthogonalEdgeStyle;rounded=0;orthogonalLoop=1;jettySize=auto;html=1;" edge="1" parent="1" source="C1Iqox2kpJ_FTRaIJ511-55" target="C1Iqox2kpJ_FTRaIJ511-57">
          <mxGeometry relative="1" as="geometry" />
        </mxCell>
        <mxCell id="C1Iqox2kpJ_FTRaIJ511-55" value="&lt;font style=&quot;font-size: 14px;&quot;&gt;total += a[i]&lt;/font&gt;" style="whiteSpace=wrap;html=1;rounded=1;arcSize=18;" vertex="1" parent="1">
          <mxGeometry x="60" y="420" width="120" height="60" as="geometry" />
        </mxCell>
        <mxCell id="C1Iqox2kpJ_FTRaIJ511-59" style="edgeStyle=orthogonalEdgeStyle;rounded=0;orthogonalLoop=1;jettySize=auto;html=1;exitX=0;exitY=0.5;exitDx=0;exitDy=0;entryX=0;entryY=0.5;entryDx=0;entryDy=0;" edge="1" parent="1" source="C1Iqox2kpJ_FTRaIJ511-57" target="C1Iqox2kpJ_FTRaIJ511-47">
          <mxGeometry relative="1" as="geometry">
            <Array as="points">
              <mxPoint x="10" y="540" />
              <mxPoint x="10" y="340" />
            </Array>
          </mxGeometry>
        </mxCell>
        <mxCell id="C1Iqox2kpJ_FTRaIJ511-57" value="&lt;font style=&quot;font-size: 14px;&quot;&gt;i++&lt;/font&gt;" style="whiteSpace=wrap;html=1;rounded=1;arcSize=18;" vertex="1" parent="1">
          <mxGeometry x="85" y="510" width="70" height="50" as="geometry" />
        </mxCell>
        <mxCell id="3qDKxtHnP1iz_C2Faje0-1" value="(0)" style="text;html=1;align=center;verticalAlign=middle;whiteSpace=wrap;rounded=0;" vertex="1" parent="1">
          <mxGeometry x="20" y="52.5" width="40" height="35" as="geometry" />
        </mxCell>
        <mxCell id="3qDKxtHnP1iz_C2Faje0-2" value="(1)" style="text;html=1;align=center;verticalAlign=middle;whiteSpace=wrap;rounded=0;" vertex="1" parent="1">
          <mxGeometry x="20" y="142.5" width="40" height="35" as="geometry" />
        </mxCell>
        <mxCell id="3qDKxtHnP1iz_C2Faje0-3" value="(2)" style="text;html=1;align=center;verticalAlign=middle;whiteSpace=wrap;rounded=0;" vertex="1" parent="1">
          <mxGeometry x="20" y="240" width="40" height="35" as="geometry" />
        </mxCell>
        <mxCell id="3qDKxtHnP1iz_C2Faje0-4" value="(4)" style="text;html=1;align=center;verticalAlign=middle;whiteSpace=wrap;rounded=0;" vertex="1" parent="1">
          <mxGeometry x="310" y="275" width="40" height="35" as="geometry" />
        </mxCell>
        <mxCell id="3qDKxtHnP1iz_C2Faje0-5" value="(6)" style="text;html=1;align=center;verticalAlign=middle;whiteSpace=wrap;rounded=0;" vertex="1" parent="1">
          <mxGeometry x="50" y="498" width="40" height="35" as="geometry" />
        </mxCell>
        <mxCell id="3qDKxtHnP1iz_C2Faje0-8" value="(7)" style="text;html=1;align=center;verticalAlign=middle;whiteSpace=wrap;rounded=0;" vertex="1" parent="1">
          <mxGeometry x="290" y="470" width="40" height="35" as="geometry" />
        </mxCell>
        <mxCell id="3qDKxtHnP1iz_C2Faje0-10" value="(3)" style="text;html=1;align=center;verticalAlign=middle;whiteSpace=wrap;rounded=0;" vertex="1" parent="1">
          <mxGeometry x="45" y="300" width="40" height="35" as="geometry" />
        </mxCell>
        <mxCell id="3qDKxtHnP1iz_C2Faje0-11" value="(5)" style="text;html=1;align=center;verticalAlign=middle;whiteSpace=wrap;rounded=0;" vertex="1" parent="1">
          <mxGeometry x="20" y="427.5" width="40" height="35" as="geometry" />
        </mxCell>
      </root>
    </mxGraphModel>
  </diagram>
  <diagram id="fyvQckBPfrxhbsHEMroh" name="4">
    <mxGraphModel dx="829" dy="639" grid="1" gridSize="10" guides="1" tooltips="1" connect="1" arrows="1" fold="1" page="1" pageScale="1" pageWidth="850" pageHeight="1100" math="0" shadow="0">
      <root>
        <mxCell id="0" />
        <mxCell id="1" parent="0" />
        <mxCell id="2sJcz2eSHlX4d_80YMJ0-3" value="" style="edgeStyle=orthogonalEdgeStyle;rounded=0;orthogonalLoop=1;jettySize=auto;html=1;" edge="1" parent="1" source="2sJcz2eSHlX4d_80YMJ0-1" target="2sJcz2eSHlX4d_80YMJ0-2">
          <mxGeometry relative="1" as="geometry" />
        </mxCell>
        <mxCell id="2sJcz2eSHlX4d_80YMJ0-1" value="&lt;font style=&quot;font-size: 14px;&quot;&gt;string foo(int x)&lt;/font&gt;" style="rounded=1;whiteSpace=wrap;html=1;" vertex="1" parent="1">
          <mxGeometry x="340" y="40" width="120" height="60" as="geometry" />
        </mxCell>
        <mxCell id="2sJcz2eSHlX4d_80YMJ0-7" value="" style="edgeStyle=orthogonalEdgeStyle;rounded=0;orthogonalLoop=1;jettySize=auto;html=1;" edge="1" parent="1" source="2sJcz2eSHlX4d_80YMJ0-2" target="2sJcz2eSHlX4d_80YMJ0-6">
          <mxGeometry relative="1" as="geometry" />
        </mxCell>
        <mxCell id="2sJcz2eSHlX4d_80YMJ0-2" value="&lt;font style=&quot;font-size: 14px;&quot;&gt;string res&lt;/font&gt;" style="rounded=1;whiteSpace=wrap;html=1;" vertex="1" parent="1">
          <mxGeometry x="340" y="130" width="120" height="60" as="geometry" />
        </mxCell>
        <mxCell id="2sJcz2eSHlX4d_80YMJ0-6" value="&lt;font style=&quot;font-size: 14px;&quot;&gt;switch (x)&lt;/font&gt;" style="rhombus;whiteSpace=wrap;html=1;rounded=1;arcSize=0;" vertex="1" parent="1">
          <mxGeometry x="325" y="230" width="150" height="80" as="geometry" />
        </mxCell>
        <mxCell id="2sJcz2eSHlX4d_80YMJ0-8" value="&lt;font style=&quot;font-size: 14px;&quot;&gt;res = &quot;A&quot;&lt;/font&gt;&lt;div&gt;&lt;font style=&quot;font-size: 14px;&quot;&gt;break&lt;/font&gt;&lt;/div&gt;" style="rounded=1;whiteSpace=wrap;html=1;" vertex="1" parent="1">
          <mxGeometry x="140" y="400" width="100" height="60" as="geometry" />
        </mxCell>
        <mxCell id="2sJcz2eSHlX4d_80YMJ0-10" value="&lt;font style=&quot;font-size: 14px;&quot;&gt;res = &quot;B&quot;&lt;/font&gt;&lt;div&gt;&lt;font style=&quot;font-size: 14px;&quot;&gt;break&lt;/font&gt;&lt;/div&gt;" style="rounded=1;whiteSpace=wrap;html=1;" vertex="1" parent="1">
          <mxGeometry x="280" y="400" width="100" height="60" as="geometry" />
        </mxCell>
        <mxCell id="2sJcz2eSHlX4d_80YMJ0-11" value="&lt;font style=&quot;font-size: 14px;&quot;&gt;res = &quot;C&quot;&lt;/font&gt;&lt;div&gt;&lt;font style=&quot;font-size: 14px;&quot;&gt;break&lt;/font&gt;&lt;/div&gt;" style="rounded=1;whiteSpace=wrap;html=1;" vertex="1" parent="1">
          <mxGeometry x="420" y="400" width="100" height="60" as="geometry" />
        </mxCell>
        <mxCell id="2sJcz2eSHlX4d_80YMJ0-12" value="&lt;font style=&quot;font-size: 14px;&quot;&gt;res = &quot;haven&#39;t check&quot;&lt;br&gt;&lt;/font&gt;" style="rounded=1;whiteSpace=wrap;html=1;" vertex="1" parent="1">
          <mxGeometry x="560" y="400" width="100" height="60" as="geometry" />
        </mxCell>
        <mxCell id="2sJcz2eSHlX4d_80YMJ0-14" value="" style="endArrow=classic;html=1;rounded=0;exitX=0.5;exitY=1;exitDx=0;exitDy=0;entryX=0.5;entryY=0;entryDx=0;entryDy=0;" edge="1" parent="1" source="2sJcz2eSHlX4d_80YMJ0-6" target="2sJcz2eSHlX4d_80YMJ0-8">
          <mxGeometry width="50" height="50" relative="1" as="geometry">
            <mxPoint x="400" y="360" as="sourcePoint" />
            <mxPoint x="450" y="310" as="targetPoint" />
          </mxGeometry>
        </mxCell>
        <mxCell id="2sJcz2eSHlX4d_80YMJ0-15" value="" style="endArrow=classic;html=1;rounded=0;exitX=0.5;exitY=1;exitDx=0;exitDy=0;entryX=0.5;entryY=0;entryDx=0;entryDy=0;" edge="1" parent="1" source="2sJcz2eSHlX4d_80YMJ0-6" target="2sJcz2eSHlX4d_80YMJ0-10">
          <mxGeometry width="50" height="50" relative="1" as="geometry">
            <mxPoint x="410" y="320" as="sourcePoint" />
            <mxPoint x="200" y="380" as="targetPoint" />
          </mxGeometry>
        </mxCell>
        <mxCell id="2sJcz2eSHlX4d_80YMJ0-16" value="" style="endArrow=classic;html=1;rounded=0;exitX=0.5;exitY=1;exitDx=0;exitDy=0;entryX=0.5;entryY=0;entryDx=0;entryDy=0;" edge="1" parent="1" source="2sJcz2eSHlX4d_80YMJ0-6" target="2sJcz2eSHlX4d_80YMJ0-11">
          <mxGeometry width="50" height="50" relative="1" as="geometry">
            <mxPoint x="420" y="330" as="sourcePoint" />
            <mxPoint x="210" y="390" as="targetPoint" />
          </mxGeometry>
        </mxCell>
        <mxCell id="2sJcz2eSHlX4d_80YMJ0-17" value="" style="endArrow=classic;html=1;rounded=0;exitX=0.5;exitY=1;exitDx=0;exitDy=0;entryX=0.5;entryY=0;entryDx=0;entryDy=0;" edge="1" parent="1" source="2sJcz2eSHlX4d_80YMJ0-6" target="2sJcz2eSHlX4d_80YMJ0-12">
          <mxGeometry width="50" height="50" relative="1" as="geometry">
            <mxPoint x="430" y="340" as="sourcePoint" />
            <mxPoint x="220" y="400" as="targetPoint" />
          </mxGeometry>
        </mxCell>
        <mxCell id="3T2wzqphonvAUUooYzye-2" value="" style="edgeStyle=orthogonalEdgeStyle;rounded=0;orthogonalLoop=1;jettySize=auto;html=1;" edge="1" parent="1" source="2sJcz2eSHlX4d_80YMJ0-18" target="3T2wzqphonvAUUooYzye-1">
          <mxGeometry relative="1" as="geometry" />
        </mxCell>
        <mxCell id="2sJcz2eSHlX4d_80YMJ0-18" value="&lt;font style=&quot;font-size: 14px;&quot;&gt;return res&lt;/font&gt;" style="rounded=1;whiteSpace=wrap;html=1;" vertex="1" parent="1">
          <mxGeometry x="340" y="520" width="120" height="60" as="geometry" />
        </mxCell>
        <mxCell id="2sJcz2eSHlX4d_80YMJ0-19" value="" style="endArrow=classic;html=1;rounded=0;exitX=0.5;exitY=1;exitDx=0;exitDy=0;entryX=0.5;entryY=0;entryDx=0;entryDy=0;" edge="1" parent="1" source="2sJcz2eSHlX4d_80YMJ0-8" target="2sJcz2eSHlX4d_80YMJ0-18">
          <mxGeometry width="50" height="50" relative="1" as="geometry">
            <mxPoint x="400" y="360" as="sourcePoint" />
            <mxPoint x="450" y="310" as="targetPoint" />
          </mxGeometry>
        </mxCell>
        <mxCell id="2sJcz2eSHlX4d_80YMJ0-22" value="" style="endArrow=classic;html=1;rounded=0;exitX=0.5;exitY=1;exitDx=0;exitDy=0;entryX=0.5;entryY=0;entryDx=0;entryDy=0;" edge="1" parent="1" source="2sJcz2eSHlX4d_80YMJ0-10" target="2sJcz2eSHlX4d_80YMJ0-18">
          <mxGeometry width="50" height="50" relative="1" as="geometry">
            <mxPoint x="320" y="470" as="sourcePoint" />
            <mxPoint x="530" y="530" as="targetPoint" />
          </mxGeometry>
        </mxCell>
        <mxCell id="2sJcz2eSHlX4d_80YMJ0-23" value="" style="endArrow=classic;html=1;rounded=0;exitX=0.5;exitY=1;exitDx=0;exitDy=0;entryX=0.5;entryY=0;entryDx=0;entryDy=0;" edge="1" parent="1" source="2sJcz2eSHlX4d_80YMJ0-11" target="2sJcz2eSHlX4d_80YMJ0-18">
          <mxGeometry width="50" height="50" relative="1" as="geometry">
            <mxPoint x="340" y="470" as="sourcePoint" />
            <mxPoint x="410" y="530" as="targetPoint" />
          </mxGeometry>
        </mxCell>
        <mxCell id="2sJcz2eSHlX4d_80YMJ0-24" value="" style="endArrow=classic;html=1;rounded=0;exitX=0.5;exitY=1;exitDx=0;exitDy=0;entryX=0.5;entryY=0;entryDx=0;entryDy=0;" edge="1" parent="1" source="2sJcz2eSHlX4d_80YMJ0-12" target="2sJcz2eSHlX4d_80YMJ0-18">
          <mxGeometry width="50" height="50" relative="1" as="geometry">
            <mxPoint x="350" y="480" as="sourcePoint" />
            <mxPoint x="420" y="540" as="targetPoint" />
          </mxGeometry>
        </mxCell>
        <mxCell id="2sJcz2eSHlX4d_80YMJ0-25" value="case 65" style="text;html=1;align=center;verticalAlign=middle;whiteSpace=wrap;rounded=0;" vertex="1" parent="1">
          <mxGeometry x="220" y="330" width="60" height="30" as="geometry" />
        </mxCell>
        <mxCell id="2sJcz2eSHlX4d_80YMJ0-26" value="case 66" style="text;html=1;align=center;verticalAlign=middle;whiteSpace=wrap;rounded=0;" vertex="1" parent="1">
          <mxGeometry x="300" y="350" width="60" height="30" as="geometry" />
        </mxCell>
        <mxCell id="2sJcz2eSHlX4d_80YMJ0-27" value="case 67" style="text;html=1;align=center;verticalAlign=middle;whiteSpace=wrap;rounded=0;" vertex="1" parent="1">
          <mxGeometry x="380" y="350" width="60" height="30" as="geometry" />
        </mxCell>
        <mxCell id="2sJcz2eSHlX4d_80YMJ0-28" value="default" style="text;html=1;align=center;verticalAlign=middle;whiteSpace=wrap;rounded=0;" vertex="1" parent="1">
          <mxGeometry x="530" y="340" width="60" height="30" as="geometry" />
        </mxCell>
        <mxCell id="3T2wzqphonvAUUooYzye-1" value="&lt;font style=&quot;font-size: 14px;&quot;&gt;exit&lt;/font&gt;" style="rounded=1;whiteSpace=wrap;html=1;" vertex="1" parent="1">
          <mxGeometry x="340" y="620" width="120" height="60" as="geometry" />
        </mxCell>
        <mxCell id="8ldpatUVwtQLx2G2qtBn-1" value="(0)" style="text;html=1;align=center;verticalAlign=middle;whiteSpace=wrap;rounded=0;" vertex="1" parent="1">
          <mxGeometry x="295" y="52.5" width="40" height="35" as="geometry" />
        </mxCell>
        <mxCell id="8ldpatUVwtQLx2G2qtBn-2" value="(1)" style="text;html=1;align=center;verticalAlign=middle;whiteSpace=wrap;rounded=0;" vertex="1" parent="1">
          <mxGeometry x="295" y="142.5" width="40" height="35" as="geometry" />
        </mxCell>
        <mxCell id="8ldpatUVwtQLx2G2qtBn-3" value="(2)" style="text;html=1;align=center;verticalAlign=middle;whiteSpace=wrap;rounded=0;" vertex="1" parent="1">
          <mxGeometry x="285" y="252.5" width="40" height="35" as="geometry" />
        </mxCell>
        <mxCell id="8ldpatUVwtQLx2G2qtBn-4" value="(4)" style="text;html=1;align=center;verticalAlign=middle;whiteSpace=wrap;rounded=0;" vertex="1" parent="1">
          <mxGeometry x="285" y="370" width="40" height="35" as="geometry" />
        </mxCell>
        <mxCell id="8ldpatUVwtQLx2G2qtBn-5" value="(6)" style="text;html=1;align=center;verticalAlign=middle;whiteSpace=wrap;rounded=0;" vertex="1" parent="1">
          <mxGeometry x="605" y="365" width="40" height="35" as="geometry" />
        </mxCell>
        <mxCell id="8ldpatUVwtQLx2G2qtBn-8" value="(7)" style="text;html=1;align=center;verticalAlign=middle;whiteSpace=wrap;rounded=0;" vertex="1" parent="1">
          <mxGeometry x="455" y="532" width="40" height="35" as="geometry" />
        </mxCell>
        <mxCell id="8ldpatUVwtQLx2G2qtBn-9" value="(8)" style="text;html=1;align=center;verticalAlign=middle;whiteSpace=wrap;rounded=0;" vertex="1" parent="1">
          <mxGeometry x="455" y="632.5" width="40" height="35" as="geometry" />
        </mxCell>
        <mxCell id="8ldpatUVwtQLx2G2qtBn-10" value="(3)" style="text;html=1;align=center;verticalAlign=middle;whiteSpace=wrap;rounded=0;" vertex="1" parent="1">
          <mxGeometry x="150" y="370" width="40" height="35" as="geometry" />
        </mxCell>
        <mxCell id="8ldpatUVwtQLx2G2qtBn-11" value="(5)" style="text;html=1;align=center;verticalAlign=middle;whiteSpace=wrap;rounded=0;" vertex="1" parent="1">
          <mxGeometry x="420" y="370" width="40" height="35" as="geometry" />
        </mxCell>
      </root>
    </mxGraphModel>
  </diagram>
  <diagram id="TVCN397qcsA9qPHxFVe4" name="5">
    <mxGraphModel dx="1452" dy="647" grid="1" gridSize="10" guides="1" tooltips="1" connect="1" arrows="1" fold="1" page="1" pageScale="1" pageWidth="850" pageHeight="1100" math="0" shadow="0">
      <root>
        <mxCell id="0" />
        <mxCell id="1" parent="0" />
        <mxCell id="Ilx1JmBBzhD4PFQPzp42-4" value="" style="edgeStyle=orthogonalEdgeStyle;rounded=0;orthogonalLoop=1;jettySize=auto;html=1;" parent="1" source="Ilx1JmBBzhD4PFQPzp42-1" target="Ilx1JmBBzhD4PFQPzp42-3" edge="1">
          <mxGeometry relative="1" as="geometry" />
        </mxCell>
        <mxCell id="Ilx1JmBBzhD4PFQPzp42-1" value="&lt;font style=&quot;font-size: 14px;&quot;&gt;calculate_total_cost&lt;/font&gt;&lt;div&gt;&lt;font style=&quot;font-size: 14px;&quot;&gt;(int x, y)&lt;/font&gt;&lt;/div&gt;" style="rounded=1;whiteSpace=wrap;html=1;" parent="1" vertex="1">
          <mxGeometry x="230" y="110" width="150" height="60" as="geometry" />
        </mxCell>
        <mxCell id="Ilx1JmBBzhD4PFQPzp42-6" value="" style="edgeStyle=orthogonalEdgeStyle;rounded=0;orthogonalLoop=1;jettySize=auto;html=1;" parent="1" source="Ilx1JmBBzhD4PFQPzp42-3" target="Ilx1JmBBzhD4PFQPzp42-5" edge="1">
          <mxGeometry relative="1" as="geometry" />
        </mxCell>
        <mxCell id="Ilx1JmBBzhD4PFQPzp42-3" value="&lt;span style=&quot;font-size: 14px;&quot;&gt;int shipping = 50000&lt;/span&gt;" style="rounded=1;whiteSpace=wrap;html=1;" parent="1" vertex="1">
          <mxGeometry x="230" y="220" width="150" height="60" as="geometry" />
        </mxCell>
        <mxCell id="Ilx1JmBBzhD4PFQPzp42-8" value="" style="edgeStyle=orthogonalEdgeStyle;rounded=0;orthogonalLoop=1;jettySize=auto;html=1;" parent="1" source="Ilx1JmBBzhD4PFQPzp42-5" target="Ilx1JmBBzhD4PFQPzp42-7" edge="1">
          <mxGeometry relative="1" as="geometry" />
        </mxCell>
        <mxCell id="Ilx1JmBBzhD4PFQPzp42-11" value="" style="edgeStyle=orthogonalEdgeStyle;rounded=0;orthogonalLoop=1;jettySize=auto;html=1;" parent="1" source="Ilx1JmBBzhD4PFQPzp42-5" target="Ilx1JmBBzhD4PFQPzp42-10" edge="1">
          <mxGeometry relative="1" as="geometry" />
        </mxCell>
        <mxCell id="Ilx1JmBBzhD4PFQPzp42-5" value="&lt;span style=&quot;font-size: 14px;&quot;&gt;! (1000 &amp;lt;= x &amp;lt;= 500000) ||&amp;nbsp;&lt;/span&gt;&lt;div&gt;&lt;span style=&quot;font-size: 14px;&quot;&gt;! (1 &amp;lt;= y &amp;lt;= 1000)&lt;/span&gt;&lt;/div&gt;" style="rhombus;whiteSpace=wrap;html=1;rounded=1;arcSize=0;" parent="1" vertex="1">
          <mxGeometry x="182.5" y="320" width="245" height="100" as="geometry" />
        </mxCell>
        <mxCell id="lkGlMzGbKSAOYAInpd6V-2" style="edgeStyle=orthogonalEdgeStyle;rounded=0;orthogonalLoop=1;jettySize=auto;html=1;exitX=1;exitY=0.5;exitDx=0;exitDy=0;" parent="1" source="Ilx1JmBBzhD4PFQPzp42-7" target="lkGlMzGbKSAOYAInpd6V-1" edge="1">
          <mxGeometry relative="1" as="geometry" />
        </mxCell>
        <mxCell id="Ilx1JmBBzhD4PFQPzp42-7" value="&lt;font style=&quot;font-size: 14px;&quot;&gt;return &quot;invalid input)&lt;/font&gt;" style="whiteSpace=wrap;html=1;rounded=1;arcSize=21;" parent="1" vertex="1">
          <mxGeometry x="500" y="340" width="120" height="60" as="geometry" />
        </mxCell>
        <mxCell id="Ilx1JmBBzhD4PFQPzp42-13" value="" style="edgeStyle=orthogonalEdgeStyle;rounded=0;orthogonalLoop=1;jettySize=auto;html=1;" parent="1" source="Ilx1JmBBzhD4PFQPzp42-10" target="Ilx1JmBBzhD4PFQPzp42-12" edge="1">
          <mxGeometry relative="1" as="geometry" />
        </mxCell>
        <mxCell id="Ilx1JmBBzhD4PFQPzp42-10" value="&lt;span style=&quot;font-size: 14px;&quot;&gt;1 &amp;lt;= y &amp;lt; 300&lt;/span&gt;" style="rhombus;whiteSpace=wrap;html=1;rounded=1;arcSize=0;" parent="1" vertex="1">
          <mxGeometry x="240.63" y="450" width="128.75" height="90" as="geometry" />
        </mxCell>
        <mxCell id="lkGlMzGbKSAOYAInpd6V-3" style="edgeStyle=orthogonalEdgeStyle;rounded=0;orthogonalLoop=1;jettySize=auto;html=1;exitX=1;exitY=0.5;exitDx=0;exitDy=0;entryX=0.25;entryY=0;entryDx=0;entryDy=0;" parent="1" source="Ilx1JmBBzhD4PFQPzp42-12" target="lkGlMzGbKSAOYAInpd6V-1" edge="1">
          <mxGeometry relative="1" as="geometry" />
        </mxCell>
        <mxCell id="Ilx1JmBBzhD4PFQPzp42-12" value="&lt;font style=&quot;font-size: 14px;&quot;&gt;return (x * y + shipping)&lt;/font&gt;" style="whiteSpace=wrap;html=1;rounded=1;arcSize=26;" parent="1" vertex="1">
          <mxGeometry x="490" y="465" width="120" height="60" as="geometry" />
        </mxCell>
        <mxCell id="Ilx1JmBBzhD4PFQPzp42-14" value="" style="edgeStyle=orthogonalEdgeStyle;rounded=0;orthogonalLoop=1;jettySize=auto;html=1;exitX=0.5;exitY=1;exitDx=0;exitDy=0;" parent="1" source="Ilx1JmBBzhD4PFQPzp42-10" target="Ilx1JmBBzhD4PFQPzp42-16" edge="1">
          <mxGeometry relative="1" as="geometry">
            <mxPoint x="305" y="640" as="sourcePoint" />
          </mxGeometry>
        </mxCell>
        <mxCell id="Ilx1JmBBzhD4PFQPzp42-15" value="" style="edgeStyle=orthogonalEdgeStyle;rounded=0;orthogonalLoop=1;jettySize=auto;html=1;" parent="1" source="Ilx1JmBBzhD4PFQPzp42-16" target="Ilx1JmBBzhD4PFQPzp42-17" edge="1">
          <mxGeometry relative="1" as="geometry" />
        </mxCell>
        <mxCell id="Ilx1JmBBzhD4PFQPzp42-16" value="&lt;span style=&quot;font-size: 14px;&quot;&gt;300 &amp;lt;= y &amp;lt; 500&lt;/span&gt;" style="rhombus;whiteSpace=wrap;html=1;rounded=1;arcSize=0;" parent="1" vertex="1">
          <mxGeometry x="240.01" y="590" width="129.37" height="95" as="geometry" />
        </mxCell>
        <mxCell id="lkGlMzGbKSAOYAInpd6V-4" style="edgeStyle=orthogonalEdgeStyle;rounded=0;orthogonalLoop=1;jettySize=auto;html=1;exitX=1;exitY=0.5;exitDx=0;exitDy=0;entryX=0.25;entryY=1;entryDx=0;entryDy=0;" parent="1" source="Ilx1JmBBzhD4PFQPzp42-17" target="lkGlMzGbKSAOYAInpd6V-1" edge="1">
          <mxGeometry relative="1" as="geometry" />
        </mxCell>
        <mxCell id="Ilx1JmBBzhD4PFQPzp42-17" value="&lt;font style=&quot;font-size: 14px;&quot;&gt;return (x * y * 0.85 + shipping)&lt;/font&gt;" style="whiteSpace=wrap;html=1;rounded=1;arcSize=21;" parent="1" vertex="1">
          <mxGeometry x="490" y="607.5" width="120" height="60" as="geometry" />
        </mxCell>
        <mxCell id="Ilx1JmBBzhD4PFQPzp42-18" value="" style="edgeStyle=orthogonalEdgeStyle;rounded=0;orthogonalLoop=1;jettySize=auto;html=1;exitX=0.5;exitY=1;exitDx=0;exitDy=0;entryX=0.5;entryY=0;entryDx=0;entryDy=0;" parent="1" source="Ilx1JmBBzhD4PFQPzp42-16" target="Ilx1JmBBzhD4PFQPzp42-21" edge="1">
          <mxGeometry relative="1" as="geometry">
            <mxPoint x="305" y="830" as="sourcePoint" />
            <mxPoint x="305" y="730.003846449727" as="targetPoint" />
          </mxGeometry>
        </mxCell>
        <mxCell id="lkGlMzGbKSAOYAInpd6V-5" style="edgeStyle=orthogonalEdgeStyle;rounded=0;orthogonalLoop=1;jettySize=auto;html=1;exitX=1;exitY=0.5;exitDx=0;exitDy=0;entryX=0.5;entryY=1;entryDx=0;entryDy=0;" parent="1" source="Ilx1JmBBzhD4PFQPzp42-21" target="lkGlMzGbKSAOYAInpd6V-1" edge="1">
          <mxGeometry relative="1" as="geometry" />
        </mxCell>
        <mxCell id="Ilx1JmBBzhD4PFQPzp42-21" value="&lt;font style=&quot;font-size: 14px;&quot;&gt;return (x * y * 0.8)&lt;/font&gt;" style="whiteSpace=wrap;html=1;rounded=1;arcSize=25;" parent="1" vertex="1">
          <mxGeometry x="244.69" y="740" width="120" height="60" as="geometry" />
        </mxCell>
        <mxCell id="_ds9pFZ3ZwVH28AYuvjZ-1" value="&lt;font style=&quot;font-size: 14px;&quot;&gt;true&lt;/font&gt;" style="text;html=1;align=center;verticalAlign=middle;whiteSpace=wrap;rounded=0;" parent="1" vertex="1">
          <mxGeometry x="440" y="340" width="60" height="30" as="geometry" />
        </mxCell>
        <mxCell id="_ds9pFZ3ZwVH28AYuvjZ-2" value="&lt;font style=&quot;font-size: 14px;&quot;&gt;false&lt;/font&gt;" style="text;html=1;align=center;verticalAlign=middle;whiteSpace=wrap;rounded=0;" parent="1" vertex="1">
          <mxGeometry x="240.01" y="430" width="60" height="30" as="geometry" />
        </mxCell>
        <mxCell id="_ds9pFZ3ZwVH28AYuvjZ-4" style="edgeStyle=orthogonalEdgeStyle;rounded=0;orthogonalLoop=1;jettySize=auto;html=1;exitX=0.5;exitY=1;exitDx=0;exitDy=0;" parent="1" source="Ilx1JmBBzhD4PFQPzp42-5" target="Ilx1JmBBzhD4PFQPzp42-5" edge="1">
          <mxGeometry relative="1" as="geometry" />
        </mxCell>
        <mxCell id="_ds9pFZ3ZwVH28AYuvjZ-5" value="&lt;font style=&quot;font-size: 14px;&quot;&gt;false&lt;/font&gt;" style="text;html=1;align=center;verticalAlign=middle;whiteSpace=wrap;rounded=0;" parent="1" vertex="1">
          <mxGeometry x="250" y="550" width="60" height="30" as="geometry" />
        </mxCell>
        <mxCell id="_ds9pFZ3ZwVH28AYuvjZ-6" value="&lt;font style=&quot;font-size: 14px;&quot;&gt;false&lt;/font&gt;" style="text;html=1;align=center;verticalAlign=middle;whiteSpace=wrap;rounded=0;" parent="1" vertex="1">
          <mxGeometry x="240.63" y="685" width="60" height="30" as="geometry" />
        </mxCell>
        <mxCell id="_ds9pFZ3ZwVH28AYuvjZ-7" value="&lt;font style=&quot;font-size: 14px;&quot;&gt;true&lt;/font&gt;" style="text;html=1;align=center;verticalAlign=middle;whiteSpace=wrap;rounded=0;" parent="1" vertex="1">
          <mxGeometry x="390" y="465" width="60" height="30" as="geometry" />
        </mxCell>
        <mxCell id="_ds9pFZ3ZwVH28AYuvjZ-8" value="&lt;font style=&quot;font-size: 14px;&quot;&gt;true&lt;/font&gt;" style="text;html=1;align=center;verticalAlign=middle;whiteSpace=wrap;rounded=0;" parent="1" vertex="1">
          <mxGeometry x="390" y="610" width="60" height="30" as="geometry" />
        </mxCell>
        <mxCell id="lkGlMzGbKSAOYAInpd6V-1" value="&lt;font style=&quot;font-size: 14px;&quot;&gt;exit&lt;/font&gt;" style="rounded=1;whiteSpace=wrap;html=1;" parent="1" vertex="1">
          <mxGeometry x="680" y="540" width="90" height="50" as="geometry" />
        </mxCell>
        <mxCell id="lc-4pI06lqk85Cpn25Az-1" value="(0)" style="text;html=1;align=center;verticalAlign=middle;whiteSpace=wrap;rounded=0;" parent="1" vertex="1">
          <mxGeometry x="185" y="135" width="40" height="35" as="geometry" />
        </mxCell>
        <mxCell id="lc-4pI06lqk85Cpn25Az-2" value="(1)" style="text;html=1;align=center;verticalAlign=middle;whiteSpace=wrap;rounded=0;" parent="1" vertex="1">
          <mxGeometry x="185" y="225" width="40" height="35" as="geometry" />
        </mxCell>
        <mxCell id="lc-4pI06lqk85Cpn25Az-3" value="(2)" style="text;html=1;align=center;verticalAlign=middle;whiteSpace=wrap;rounded=0;" parent="1" vertex="1">
          <mxGeometry x="182.5" y="320" width="40" height="35" as="geometry" />
        </mxCell>
        <mxCell id="lc-4pI06lqk85Cpn25Az-4" value="(4)" style="text;html=1;align=center;verticalAlign=middle;whiteSpace=wrap;rounded=0;" parent="1" vertex="1">
          <mxGeometry x="215" y="460" width="40" height="35" as="geometry" />
        </mxCell>
        <mxCell id="lc-4pI06lqk85Cpn25Az-5" value="(6)" style="text;html=1;align=center;verticalAlign=middle;whiteSpace=wrap;rounded=0;" parent="1" vertex="1">
          <mxGeometry x="222.5" y="590" width="40" height="35" as="geometry" />
        </mxCell>
        <mxCell id="lc-4pI06lqk85Cpn25Az-6" value="(9)" style="text;html=1;align=center;verticalAlign=middle;whiteSpace=wrap;rounded=0;" parent="1" vertex="1">
          <mxGeometry x="770" y="545" width="40" height="35" as="geometry" />
        </mxCell>
        <mxCell id="lc-4pI06lqk85Cpn25Az-8" value="(7)" style="text;html=1;align=center;verticalAlign=middle;whiteSpace=wrap;rounded=0;" parent="1" vertex="1">
          <mxGeometry x="530" y="572.5" width="40" height="35" as="geometry" />
        </mxCell>
        <mxCell id="lc-4pI06lqk85Cpn25Az-9" value="(8)" style="text;html=1;align=center;verticalAlign=middle;whiteSpace=wrap;rounded=0;" parent="1" vertex="1">
          <mxGeometry x="200.63" y="740" width="40" height="35" as="geometry" />
        </mxCell>
        <mxCell id="lc-4pI06lqk85Cpn25Az-10" value="(3)" style="text;html=1;align=center;verticalAlign=middle;whiteSpace=wrap;rounded=0;" parent="1" vertex="1">
          <mxGeometry x="535" y="305" width="40" height="35" as="geometry" />
        </mxCell>
        <mxCell id="lc-4pI06lqk85Cpn25Az-11" value="(5)" style="text;html=1;align=center;verticalAlign=middle;whiteSpace=wrap;rounded=0;" parent="1" vertex="1">
          <mxGeometry x="535" y="430" width="40" height="35" as="geometry" />
        </mxCell>
      </root>
    </mxGraphModel>
  </diagram>
</mxfile>
